<?xml version="1.0" encoding="utf-8"?>
<!-- Generator: Adobe Illustrator 23.0.1, SVG Export Plug-In . SVG Version: 6.00 Build 0)  -->
<svg version="1.1" id="Calque_1" xmlns="http://www.w3.org/2000/svg" xmlns:xlink="http://www.w3.org/1999/xlink" x="0px" y="0px"
	 viewBox="0 0 322.5 115.9" style="enable-background:new 0 0 322.5 115.9;" xml:space="preserve">
<style type="text/css">
	.st0{fill:#FFFFFF;}
	.st1{fill:#FFFFFF;stroke:#FFFFFF;stroke-width:2;}
</style>
<g>
	<path class="st0" d="M107.3,41.8c0.4-1.4,0.9-2.9,1.7-4.3c-8.5-0.6-23.4-2.1-47.9-5.5c-37.5-5.2-46.8-12-46.8-12L3.7,58.6L113,58.5
		C107.3,55.1,105.5,48.3,107.3,41.8z"/>
</g>
<path class="st0" d="M141.9,33.2c0,0-13.3,1.5-13.9,15.2C128,48.5,120.8,32.6,141.9,33.2z"/>
<polyline class="st0" points="134.9,1.5 134.6,17.1 137.2,16.5 139.4,16.4 "/>
<path class="st0" d="M116.9,7.2l5.4,14.6c0,0,1.3-1,1.9-1.4c0.5-0.3,2.3-1,2.3-1"/>
<path class="st0" d="M102.2,19.7L113,31c0,0,0.8-1.3,1.1-1.8c0.4-0.5,1.7-2.1,1.7-2.1"/>
<path class="st0" d="M110.2,33.4"/>
<polygon class="st0" points="122,99.7 110.7,99.7 114,87.7 125.4,87.7 126.7,83.4 115.1,83.4 118.2,71.8 130,71.8 131.3,67.5 
	114.8,67.5 105,104 120.8,104 "/>
<path class="st0" d="M129.1,60.6c1.4,0,2.9-0.2,4.4-0.5l1.3-4.4c-1.4,0.4-2.9,0.6-4.5,0.6c-7.4,0-12.8-6-10.5-14.5
	c2.3-8.4,10.7-14.5,18.4-14.5c1.7,0,3.2,0.3,4.6,0.9l1.3-4.6c-1.5-0.4-3.1-0.7-4.7-0.7c-12.4,0-22,9.8-24.4,18.8
	C112.4,50.8,116.7,60.6,129.1,60.6z"/>
<path class="st0" d="M21.3,77.4c-0.6-4.3-3.1-7-7-7c-5.2,0-6.6,3.4-6.6,5.9c0,2.7,1.7,4.5,5.3,5.8l4.6,1.7c5.8,2.2,8.5,5.6,8.5,10
	c0,5.9-4.7,10.2-11.7,10.2c-6.6,0-11.3-3.5-11.9-10.8h4.6c0.4,4,2.4,6.8,7.5,6.8c4,0,6.9-2.5,6.9-5.8c0-2.8-2.4-4.7-5.7-6l-4.7-1.8
	c-5.4-2.1-8.1-5.3-8.1-10c0-6.3,5.2-10.1,11.2-10.1c6,0,10.8,3.6,11.3,11H21.3z"/>
<path class="st0" d="M31.8,71.9h4.4V78h4v3.8h-4v15.5c0,1.4,0.4,1.8,2.1,1.8h2v4c-0.6,0-1.6,0-2.7,0c-4.5,0-5.8-1.6-5.8-5.4v-16
	h-3.5V78h3.5V71.9z"/>
<path class="st0" d="M62,86.4c0-4.2-4.2-5.1-7.6-5.1c-2.4,0-4.6,0.6-7,1.7l-1.9-3.6c3.8-1.6,6.8-1.9,9.1-1.9
	c6.1,0,11.7,2.6,11.7,8.6v17.3h-4.1v-2.7c-2.2,2.3-4.7,3.3-8.1,3.3c-6.2,0-11-3.4-11-9.1c0-4.6,3.9-8.7,11-8.7
	c2.7,0,5.5,0.8,7.8,2.9V86.4z M55.1,90c-5.3,0-7.1,2.6-7.1,5s1.8,5,7.1,5c5.3,0,7.1-2.6,7.1-5S60.4,90,55.1,90z"/>
<path class="st0" d="M94.4,78h4.4v21.8c0,9.3-4.5,14.2-14.3,14.2c-4.5,0-8.4-1.7-11.8-5.4l3.5-2.8c2.7,3.3,5.8,4.4,8.4,4.4
	c6.8,0,9.8-3.4,9.8-9v-1.8h-0.1c-2.4,2.9-4.9,4.3-9.8,4.3c-8.5,0-13-7.3-13-13.1c0-7.3,6-13,13.1-13c3.7,0,7.5,1.6,9.6,4.6h0.1V78z
	 M85.5,81.5c-5.9,0-9.3,4.7-9.3,8.9c0,5.8,4.6,9.3,9.1,9.3c5,0,9.1-4,9.1-9.1C94.4,85.6,90.2,81.5,85.5,81.5z"/>
<path class="st0" d="M164.8,31c8.3,0,14.2,6.4,14.2,13.8c0,7.5-5.7,13.7-14.2,13.7c-8.6,0-14.2-6.2-14.2-13.7
	C150.5,37.3,156.5,31,164.8,31z M155.4,44.8c0,5,4.3,9.5,9.4,9.5c5,0,9.4-4.4,9.4-9.5c0-5.5-4.3-9.5-9.4-9.5
	C159.7,35.2,155.4,39.3,155.4,44.8z"/>
<path class="st0" d="M203,42.6c0-3.9-1.6-7.4-6.1-7.4c-4.2,0-6.8,2.9-6.8,7.9v14.8h-4.5V31.6h4.5v3.1h0.1c1.4-2.4,4.3-3.7,7.2-3.7
	c5.1,0,10.1,2.8,10.1,9.9v17H203V42.6z"/>
<path class="st0" d="M232.9,37.9c-1.8-1.8-3.8-2.6-6.1-2.6c-4.5,0-8.7,3.3-8.7,9.7c0,5.4,3.9,9.3,9.1,9.3c2.2,0,4.3-1.2,5.9-2.7
	l2.7,3.3c-2.4,2.4-5.7,3.6-9.1,3.6c-8.1,0-13.4-6.4-13.4-13.7c0-7.5,5.9-13.8,13.5-13.8c4,0,7.4,1.7,9.2,3.3L232.9,37.9z"/>
<path class="st0" d="M265.7,52.8c-3.5,3.9-7.3,5.7-11.9,5.7c-9.3,0-14.3-6.8-14.3-13.8c0-7.5,5.4-13.7,13.6-13.7
	c8.1,0,13.8,6.2,13.8,15.5h-22.5c0.7,4.5,4.3,7.8,9.4,7.8c3.2,0,6.1-1.5,8.4-4.2L265.7,52.8z M261.7,42.8c-0.5-4.3-4-7.5-8.7-7.5
	c-5.6,0-8.2,3.9-8.7,7.5H261.7z"/>
<path class="st0" d="M272.8,31.6h4.5v4.1h0.1c2.2-3.1,6.1-4.7,10-4.7c7.4,0,13.7,5.9,13.7,13.5c0,8.3-6.6,14-13.9,14
	c-4.5,0-7.9-1.9-9.8-4.6h-0.1V69h-4.5V31.6z M286.6,35.2c-4.9,0-9.3,4.2-9.3,9.5c0,5.3,4.2,9.5,9.4,9.5c4.8,0,9.5-3.7,9.5-9.7
	C296.3,40.1,292.8,35.2,286.6,35.2z"/>
<line class="st1" x1="150" y1="19.5" x2="124.3" y2="114"/>
<path class="st0" d="M309.9,113.9c0,0,0-3-83.6-8c-67.4-4-93-2-93-2l5.9-20.5l178.9-0.1L309.9,113.9z"/>
<g>
	<path class="st0" d="M310.2,24.4h4.7v6.6h4.4v4.2h-4.4v16.9c0,1.5,0.5,2,2.3,2h2.2v4.4c-0.7,0.1-1.8,0.1-2.9,0.1
		c-4.8,0-6.3-1.7-6.3-5.9V35.2h-3.8v-4.2h3.8V24.4z"/>
</g>
</svg>
